HIERARCHY
ROOT Hips
{
	OFFSET -0.001795 -0.223333 0.028219
	CHANNELS 6 Xposition Yposition Zposition Zrotation Yrotation Xrotation 
	JOINT LeftUpLeg
	{
		OFFSET 0.069520 -0.091406 -0.006815
		CHANNELS 3 Zrotation Yrotation Xrotation
		JOINT LeftLeg
		{
			OFFSET 0.034277 -0.375199 -0.004496
			CHANNELS 3 Zrotation Yrotation Xrotation
			JOINT LeftFoot
			{
				OFFSET -0.013596 -0.397961 -0.043693
				CHANNELS 3 Zrotation Yrotation Xrotation
				JOINT LeftToe
				{
					OFFSET 0.026358 -0.055791 0.119288
					CHANNELS 3 Zrotation Yrotation Xrotation
					End Site
					{
						OFFSET 0.000000 0.000000 0.000000
					}
				}
			}
		}
	}
	JOINT RightUpLeg
	{
		OFFSET -0.067670 -0.090522 -0.004320
		CHANNELS 3 Zrotation Yrotation Xrotation
		JOINT RightLeg
		{
			OFFSET -0.038290 -0.382569 -0.008850
			CHANNELS 3 Zrotation Yrotation Xrotation
			JOINT RightFoot
			{
				OFFSET 0.015774 -0.398415 -0.042312
				CHANNELS 3 Zrotation Yrotation Xrotation
				JOINT RightToe
				{
					OFFSET -0.025372 -0.048144 0.123348
					CHANNELS 3 Zrotation Yrotation Xrotation
					End Site
					{
						OFFSET 0.000000 0.000000 0.000000
					}
				}
			}
		}
	}
	JOINT Spine
	{
		OFFSET -0.002533 0.108963 -0.026696
		CHANNELS 3 Zrotation Yrotation Xrotation
		JOINT Spine1
		{
			OFFSET 0.005487 0.135180 0.001092
			CHANNELS 3 Zrotation Yrotation Xrotation
			JOINT Spine2
			{
				OFFSET 0.001457 0.052922 0.025425
				CHANNELS 3 Zrotation Yrotation Xrotation
				JOINT Neck
				{
					OFFSET -0.002778 0.213870 -0.042857
					CHANNELS 3 Zrotation Yrotation Xrotation
					JOINT Head
					{
						OFFSET 0.005152 0.064970 0.051349
						CHANNELS 3 Zrotation Yrotation Xrotation
						End Site
						{
							OFFSET 0.000000 0.000000 0.000000
						}
					}
				}
				JOINT LeftShoulder
				{
					OFFSET 0.078845 0.121749 -0.034090
					CHANNELS 3 Zrotation Yrotation Xrotation
					JOINT LeftArm
					{
						OFFSET 0.090977 0.030469 -0.008868
						CHANNELS 3 Zrotation Yrotation Xrotation
						JOINT LeftForeArm
						{
							OFFSET 0.259612 -0.012772 -0.027456
							CHANNELS 3 Zrotation Yrotation Xrotation
							JOINT LeftHand
							{
								OFFSET 0.249234 0.008986 -0.001171
								CHANNELS 3 Zrotation Yrotation Xrotation
								End Site
								{
									OFFSET 0.000000 0.000000 0.000000
								}
							}
						}
					}
				}
				JOINT RightShoulder
				{
					OFFSET -0.081759 0.118833 -0.038615
					CHANNELS 3 Zrotation Yrotation Xrotation
					JOINT RightArm
					{
						OFFSET -0.096012 0.032551 -0.009143
						CHANNELS 3 Zrotation Yrotation Xrotation
						JOINT RightForeArm
						{
							OFFSET -0.253742 -0.013329 -0.021401
							CHANNELS 3 Zrotation Yrotation Xrotation
							JOINT RightHand
							{
								OFFSET -0.255298 0.007772 -0.005559
								CHANNELS 3 Zrotation Yrotation Xrotation
								End Site
								{
									OFFSET 0.000000 0.000000 0.000000
								}
							}
						}
					}
				}
			}
		}
	}
}
MOTION
Frames: 16
Frame Time: 0.050000
0.000000 0.956737 0.000000 4.223968 27.825898 17.007018 6.813071 -1.117055 -10.293205 -6.949113 0.099871 -1.916931 6.244726 17.121542 15.032581 0.000000 0.000000 0.000000 -7.938608 -0.963208 -24.141009 1.221141 -0.329833 8.213313 -1.634636 -4.108182 12.312732 0.000000 0.000000 0.000000 6.950403 -4.471551 23.193593 8.818616 -1.172351 -21.326886 4.832754 -7.649113 25.568987 -1.043630 2.862033 -20.257785 0.000000 0.000000 0.000000 -5.620215 -22.984976 8.519921 -53.328728 -42.673349 10.469057 -12.802880 -48.806038 7.933339 0.000000 0.000000 0.000000 5.616471 28.401544 12.705065 48.356661 42.993490 11.937653 2.188903 30.595706 2.067461 0.000000 0.000000 0.000000 
0.001111 0.956953 -0.000857 3.905460 28.469017 17.644077 6.586116 -1.210594 -11.547603 -5.603472 0.083565 -2.477345 7.039036 18.597635 16.777680 0.000000 0.000000 0.000000 -8.668785 -1.159778 -24.113026 3.257061 -0.736508 6.572621 -1.883161 -4.521874 12.653220 0.000000 0.000000 0.000000 7.128590 -4.249898 21.774681 9.745762 -1.563957 -19.937393 5.678187 -5.812356 24.905553 -1.033296 2.996611 -17.667593 0.000000 0.000000 0.000000 -6.582442 -21.964670 7.890591 -52.435404 -43.513000 10.431792 -15.607419 -49.241605 9.016873 0.000000 0.000000 0.000000 6.486917 26.686108 12.519616 50.158023 41.677992 12.192014 -1.690695 34.255992 1.396702 0.000000 0.000000 0.000000 
0.001847 0.956874 -0.001852 3.053299 27.176085 15.897514 6.448998 -1.097406 -10.565327 -5.259731 0.133399 -1.489767 6.457357 17.564482 15.743357 0.000000 0.000000 0.000000 -7.839124 -0.802476 -23.487359 3.428511 -0.832714 8.078972 -1.727740 -4.450582 12.397136 0.000000 0.000000 0.000000 7.645235 -4.394589 22.235660 8.145955 -1.068363 -20.486094 7.348645 -5.775697 25.789530 -0.853089 2.753701 -16.817732 0.000000 0.000000 0.000000 -7.150744 -21.740304 7.895559 -49.700746 -44.569867 10.071440 -16.362901 -48.804353 9.356107 0.000000 0.000000 0.000000 4.755277 25.051456 11.032158 51.373203 41.979858 12.779978 -2.019009 34.062159 1.281844 0.000000 0.000000 0.000000 
0.002330 0.957666 -0.002694 2.783804 28.176705 15.609955 6.594895 -1.085232 -10.166977 -4.617291 0.114510 -1.436146 7.526712 18.716825 15.087437 0.000000 0.000000 0.000000 -7.810693 -0.796014 -22.715434 3.312866 -0.785383 7.265262 -0.605756 -2.248061 12.891353 0.000000 0.000000 0.000000 7.372966 -4.332348 22.103746 9.602296 -1.462682 -20.618236 7.613758 -5.763273 25.503528 -1.562662 3.322318 -17.225603 0.000000 0.000000 0.000000 -7.131518 -20.953254 7.482333 -48.678254 -43.396257 9.180542 -19.388470 -50.248667 10.965228 0.000000 0.000000 0.000000 3.506617 25.506912 10.834634 52.570285 42.138446 13.598157 -4.382674 33.328710 0.538425 0.000000 0.000000 0.000000 
0.002531 0.957620 -0.003799 3.046712 29.646443 15.065790 6.446726 -1.061835 -9.773425 -5.190381 0.099970 -1.157514 7.163668 18.330462 15.225008 0.000000 0.000000 0.000000 -8.016455 -0.856310 -21.521668 3.262872 -0.804811 7.175366 -1.471780 -3.676887 13.225590 0.000000 0.000000 0.000000 7.559699 -4.478154 22.237043 9.883609 -1.493596 -20.912444 7.500232 -5.818361 24.993010 -1.421330 3.274861 -16.503058 0.000000 0.000000 0.000000 -6.630238 -21.677235 7.640268 -46.368980 -43.321299 8.448148 -21.408994 -51.445031 12.034441 0.000000 0.000000 0.000000 2.971071 25.292754 10.620559 51.671183 41.458263 13.091618 -5.201644 32.923987 0.259147 0.000000 0.000000 0.000000 
0.002353 0.958098 -0.005104 3.120242 31.071372 14.954828 6.832429 -1.101829 -9.846958 -5.180317 0.078193 -1.069396 6.605898 17.565450 14.676302 0.000000 0.000000 0.000000 -8.075726 -0.954717 -21.250813 3.128766 -0.803656 7.155541 -1.612082 -3.742814 12.891182 0.000000 0.000000 0.000000 7.410107 -4.472230 22.107346 10.132579 -1.508171 -21.285854 8.173741 -5.809003 24.765314 -1.175304 3.179246 -15.812525 0.000000 0.000000 0.000000 -6.399700 -22.205305 7.736367 -44.353966 -44.154618 8.077829 -20.699359 -52.214932 11.709627 0.000000 0.000000 0.000000 2.558186 24.914526 10.371669 50.648802 40.755656 12.489678 -5.729214 33.214808 0.129287 0.000000 0.000000 0.000000 
0.001860 0.957992 -0.006546 3.053767 31.476380 14.560832 6.685362 -1.101990 -9.959436 -5.266294 0.076315 -0.745326 6.783229 17.824395 14.779987 0.000000 0.000000 0.000000 -7.959404 -0.939991 -21.016132 2.983386 -0.802854 7.568174 -2.019644 -4.449156 12.886346 0.000000 0.000000 0.000000 6.993515 -4.318195 21.972531 10.514279 -1.622180 -21.190823 8.428416 -5.510565 24.505905 -0.905231 3.015248 -15.094851 0.000000 0.000000 0.000000 -6.055335 -22.309494 7.674724 -42.682039 -44.061783 7.510040 -18.813144 -52.477659 10.663036 0.000000 0.000000 0.000000 2.998276 24.808012 10.511382 50.043111 40.153748 11.984087 -6.320077 33.260094 -0.030336 0.000000 0.000000 0.000000 
0.001224 0.958069 -0.008179 2.936559 32.026340 14.363942 6.626880 -1.122631 -10.241038 -5.093915 0.072448 -0.360089 6.497748 17.264964 13.862798 0.000000 0.000000 0.000000 -7.926816 -0.989892 -21.137698 2.864571 -0.815899 8.057043 -2.175532 -4.680112 12.339788 0.000000 0.000000 0.000000 7.128077 -4.358336 21.882700 10.295795 -1.546847 -21.225509 8.763580 -5.161075 24.381673 -0.052349 2.402291 -13.870674 0.000000 0.000000 0.000000 -5.612496 -22.633101 7.705516 -41.362086 -44.753057 7.269731 -14.985625 -51.043102 8.362563 0.000000 0.000000 0.000000 3.182076 24.774198 10.622591 50.311561 39.540879 11.816730 -6.426647 33.456823 -0.024295 0.000000 0.000000 0.000000 
0.000616 0.958423 -0.009903 2.970848 32.382435 14.084344 6.527709 -1.123979 -10.315102 -4.949137 0.069149 -0.104525 6.074932 16.746549 13.791643 0.000000 0.000000 0.000000 -7.912158 -1.010280 -21.044832 2.673793 -0.776627 8.055778 -2.060504 -4.418570 12.527575 0.000000 0.000000 0.000000 6.940032 -4.352445 22.043617 10.471209 -1.606430 -21.119220 9.049409 -4.678143 24.083567 0.068520 2.335759 -13.238929 0.000000 0.000000 0.000000 -5.201502 -22.736119 7.648261 -40.770843 -45.915282 7.411665 -9.533354 -47.899155 5.297492 0.000000 0.000000 0.000000 3.334173 25.217707 10.916309 50.654392 39.378708 11.950186 -6.825437 32.907557 -0.153578 0.000000 0.000000 0.000000 
0.000015 0.958860 -0.011647 3.192003 32.733355 13.750201 6.213630 -1.118049 -10.440760 -5.021263 0.067462 0.388801 6.114687 16.718163 13.470647 0.000000 0.000000 0.000000 -8.149842 -1.068923 -20.691909 2.734661 -0.814068 8.240873 -2.066259 -4.401217 12.373236 0.000000 0.000000 0.000000 6.648664 -4.358570 22.393766 10.617316 -1.631140 -21.259502 9.338809 -4.750441 23.856159 -0.149923 2.472640 -12.989762 0.000000 0.000000 0.000000 -4.589784 -22.798758 7.641887 -40.088609 -46.857260 7.466754 -5.524187 -44.652766 3.274271 0.000000 0.000000 0.000000 3.189412 25.704269 11.064019 50.900254 39.112649 11.934913 -6.366759 33.231246 -0.035267 0.000000 0.000000 0.000000 
-0.000516 0.959266 -0.013350 3.234680 32.722700 13.442434 6.224362 -1.102870 -10.285192 -5.000883 0.068251 0.365988 5.885494 16.486041 13.658560 0.000000 0.000000 0.000000 -8.143462 -1.055569 -20.553690 2.732136 -0.814178 8.257237 -1.847531 -4.003615 12.468383 0.000000 0.000000 0.000000 6.493521 -4.371240 22.659824 10.619130 -1.637683 -21.239511 9.796512 -4.739927 23.804620 -0.340565 2.538975 -12.385325 0.000000 0.000000 0.000000 -4.188157 -23.070010 7.738475 -40.034589 -47.981393 7.781584 -2.668435 -40.748601 1.971026 0.000000 0.000000 0.000000 3.021759 26.324133 11.236024 51.359302 39.519437 12.343575 -5.641603 33.034432 0.131334 0.000000 0.000000 0.000000 
-0.001079 0.959462 -0.015023 3.246182 32.648201 12.984280 6.211043 -1.087219 -10.176174 -5.107531 0.073743 0.647232 5.889219 16.515414 13.770622 0.000000 0.000000 0.000000 -8.174876 -1.006512 -20.034596 2.726090 -0.780147 7.765734 -1.676619 -3.703840 12.609396 0.000000 0.000000 0.000000 6.470019 -4.447483 23.046426 10.560379 -1.652088 -20.935443 10.356201 -4.809021 23.622945 -0.924630 2.799821 -11.190704 0.000000 0.000000 0.000000 -3.718583 -23.015161 7.731944 -39.978847 -48.743759 8.005223 -1.045303 -37.869715 1.323689 0.000000 0.000000 0.000000 2.966044 27.030436 11.460459 51.543057 39.988065 12.638466 -4.978028 32.577007 0.270960 0.000000 0.000000 0.000000 
-0.001564 0.959570 -0.016522 3.151113 32.346289 12.601995 6.188213 -1.079252 -10.194937 -5.090424 0.081626 0.963722 5.996393 16.615064 13.680296 0.000000 0.000000 0.000000 -8.038559 -0.915943 -19.664301 2.640538 -0.729553 7.388145 -1.637701 -3.671144 12.535321 0.000000 0.000000 0.000000 6.543326 -4.560954 23.493138 10.502479 -1.663511 -20.765790 10.845116 -4.642263 23.549991 -0.776637 2.700179 -11.354180 0.000000 0.000000 0.000000 -3.177517 -23.206931 7.797006 -40.178243 -49.030281 8.151435 0.068537 -36.408970 0.930135 0.000000 0.000000 0.000000 2.848725 27.533685 11.600040 51.823491 40.455669 13.009188 -4.910244 32.292943 0.262711 0.000000 0.000000 0.000000 
-0.002001 0.959469 -0.017819 2.934660 31.921555 11.999964 6.361912 -1.056568 -9.948270 -5.339083 0.094685 0.913503 6.218059 16.886887 13.778795 0.000000 0.000000 0.000000 -7.888641 -0.802914 -19.161004 2.708328 -0.717661 7.055529 -1.457771 -3.404450 12.734199 0.000000 0.000000 0.000000 6.526964 -4.648757 23.992489 10.642606 -1.729852 -20.651219 11.282176 -4.366477 23.534486 -1.038976 2.810233 -10.681843 0.000000 0.000000 0.000000 -2.447211 -22.961961 7.690271 -40.188370 -49.018162 8.104879 -0.182958 -36.160787 1.004687 0.000000 0.000000 0.000000 3.352714 28.192156 12.029422 51.664752 40.659748 12.995799 -4.792480 31.570293 0.237778 0.000000 0.000000 0.000000 
-0.002348 0.959333 -0.018843 2.876005 31.642527 11.702446 6.307122 -1.036882 -9.798718 -5.405631 0.102588 1.116467 6.117264 16.626093 13.362618 0.000000 0.000000 0.000000 -7.867664 -0.770708 -18.997588 2.632205 -0.685119 6.894484 -1.499306 -3.520766 12.778068 0.000000 0.000000 0.000000 6.651094 -4.832964 24.632091 10.559928 -1.712377 -20.675057 11.857280 -3.840435 23.463025 -0.871966 2.720023 -10.646124 0.000000 0.000000 0.000000 -1.605728 -23.108141 7.692856 -39.969196 -48.728963 7.848986 -1.069570 -37.572404 1.296473 0.000000 0.000000 0.000000 3.435690 28.676832 12.274613 51.519515 40.812662 13.077117 -5.183241 30.798260 0.087476 0.000000 0.000000 0.000000 
-0.002533 0.959098 -0.019419 2.650735 31.093897 11.343641 6.357605 -1.004161 -9.431031 -5.711205 0.115467 0.753817 6.334238 16.877967 13.425665 0.000000 0.000000 0.000000 -7.674358 -0.678137 -18.838107 2.622834 -0.670454 6.868619 -1.317779 -3.264672 13.018234 0.000000 0.000000 0.000000 6.703878 -4.867213 24.854236 10.604092 -1.750420 -20.537768 11.983105 -3.712889 23.478013 -1.083622 2.790751 -10.080690 0.000000 0.000000 0.000000 -1.145997 -22.719547 7.556850 -39.963070 -47.537313 7.461305 -2.998035 -39.582316 2.025675 0.000000 0.000000 0.000000 3.867204 29.246293 12.642186 51.737542 40.996730 13.190320 -5.757373 29.939562 -0.099460 0.000000 0.000000 0.000000 
